<svg width="102" height="50" viewBox="0 0 102 50" fill="none" xmlns="http://www.w3.org/2000/svg">
<path d="M1 9C1 6.19974 1 4.79961 1.54497 3.73005C2.02433 2.78924 2.78924 2.02433 3.73005 1.54497C4.79961 1 6.19974 1 9 1H93C95.8003 1 97.2004 1 98.27 1.54497C99.2108 2.02433 99.9757 2.78924 100.455 3.73005C101 4.79961 101 6.19974 101 9V41C101 43.8003 101 45.2004 100.455 46.27C99.9757 47.2108 99.2108 47.9757 98.27 48.455C97.2004 49 95.8003 49 93 49H9C6.19974 49 4.79961 49 3.73005 48.455C2.78924 47.9757 2.02433 47.2108 1.54497 46.27C1 45.2004 1 43.8003 1 41V9Z" fill="#FAFAFA" stroke="#EEEEEE"/>
<mask id="mask0_256_1379" style="mask-type:luminance" maskUnits="userSpaceOnUse" x="38" y="12" width="25" height="25">
<rect x="38" y="12" width="25" height="25" fill="white"/>
</mask>
<g mask="url(#mask0_256_1379)">
<path fill-rule="evenodd" clip-rule="evenodd" d="M60.714 22.4599H59.8749V22.4166H50.4999V26.5833H56.3869C55.528 29.0088 53.2202 30.75 50.4999 30.75C47.0484 30.75 44.2499 27.9515 44.2499 24.5C44.2499 21.0484 47.0484 18.25 50.4999 18.25C52.0931 18.25 53.5426 18.851 54.6463 19.8328L57.5926 16.8864C55.7322 15.1526 53.2437 14.0833 50.4999 14.0833C44.7473 14.0833 40.0833 18.7474 40.0833 24.5C40.0833 30.2526 44.7473 34.9166 50.4999 34.9166C56.2525 34.9166 60.9166 30.2526 60.9166 24.5C60.9166 23.8015 60.8447 23.1198 60.714 22.4599Z" fill="#FFC107"/>
<path fill-rule="evenodd" clip-rule="evenodd" d="M41.2842 19.6515L44.7066 22.1614C45.6326 19.8687 47.8753 18.25 50.4998 18.25C52.093 18.25 53.5425 18.851 54.6462 19.8328L57.5925 16.8864C55.7321 15.1526 53.2436 14.0833 50.4998 14.0833C46.4988 14.0833 43.029 16.3422 41.2842 19.6515Z" fill="#FF3D00"/>
<path fill-rule="evenodd" clip-rule="evenodd" d="M50.5 34.9167C53.1906 34.9167 55.6354 33.887 57.4839 32.2125L54.2599 29.4844C53.2141 30.2766 51.9141 30.75 50.5 30.75C47.7906 30.75 45.4901 29.0224 44.6234 26.6115L41.2266 29.2286C42.9505 32.6021 46.4516 34.9167 50.5 34.9167Z" fill="#4CAF50"/>
<path fill-rule="evenodd" clip-rule="evenodd" d="M60.7141 22.4599H59.875V22.4167H50.5V26.5834H56.387C55.9745 27.7485 55.225 28.7531 54.2583 29.4849C54.2589 29.4844 54.2594 29.4844 54.2599 29.4839L57.4839 32.212C57.2557 32.4193 60.9167 29.7084 60.9167 24.5C60.9167 23.8016 60.8448 23.1198 60.7141 22.4599Z" fill="#1976D2"/>
</g>
</svg>
